<svg width="121" height="24" viewBox="0 0 121 24" fill="none" xmlns="http://www.w3.org/2000/svg">
<g clipPath="url(#clip0_483_2621)">
<path d="M12.3239 0.0440865C5.41246 0.0474777 -0.00338968 5.31073 1.59177e-06 12.0288C0.00339286 18.7435 5.41925 24 12.334 24C19.2454 24 24.6579 18.7334 24.6545 12.0153C24.6511 5.30055 19.2353 0.0406952 12.3239 0.0440865ZM19.7779 12.022C19.7813 19.5981 17.2785 23.4404 12.3307 23.4404C7.40992 23.4438 4.91056 19.6049 4.90717 12.0288C4.90717 4.45273 7.39975 0.607037 12.3239 0.603646C17.2683 0.603646 19.7745 4.43917 19.7779 12.022ZM40.6783 9.45146L51.744 23.6541L46.5045 23.6575L46.4672 23.61L39.827 15.3591C39.237 14.6299 38.3518 14.1721 37.3921 14.1077C36.4493 14.0466 35.5269 14.3722 34.8453 14.9928L34.8487 23.6609H30.4502L30.44 0.362866H34.8385L34.8453 14.206L49.4006 0.356083L50.2518 0.359474L40.6783 9.45146ZM67.8627 9.4379L78.9284 23.6405L73.6855 23.6439L73.6516 23.5998L67.0081 15.3455C66.418 14.613 65.5362 14.1619 64.5765 14.0941C63.6337 14.0331 62.7113 14.3552 62.0297 14.9792L62.0365 23.6473L57.638 23.6507L57.6278 0.356083L62.0263 0.352692L62.0297 14.1992L76.585 0.349301H77.4362L67.8627 9.4379ZM84.8631 0.342518H89.2582L89.2683 23.6371L84.8665 23.6405L84.8631 0.342518ZM107.751 0C100.836 0.00339127 95.4235 5.27003 95.4303 11.9881C95.4303 18.7062 100.85 23.9661 107.761 23.9593C114.672 23.9559 120.085 18.6927 120.081 11.9746C120.081 5.25986 114.662 0 107.751 0ZM115.208 11.9746C115.212 19.5541 112.705 23.393 107.761 23.3964C102.84 23.3997 100.344 19.5608 100.341 11.9847C100.341 4.40865 102.833 0.566342 107.754 0.56295C112.695 0.56295 115.205 4.39847 115.208 11.9746Z" fill="#BA442E"/>
</g>
<defs>
<clipPath id="clip0_483_2621">
<rect width="120.081" height="24" fill="white"/>
</clipPath>
</defs>
</svg>
